<?xml version="1.0" encoding="UTF-8" standalone="no"?>
<svg
   width="24"
   height="24"
   viewBox="0 0 24 24"
   fill="none"
   version="1.1"
   id="svg1"
   sodipodi:docname="Paste.svg"
   inkscape:export-filename="..\SocialPatreon_01.svg"
   inkscape:export-xdpi="96"
   inkscape:export-ydpi="96"
   xmlns:inkscape="http://www.inkscape.org/namespaces/inkscape"
   xmlns:sodipodi="http://sodipodi.sourceforge.net/DTD/sodipodi-0.dtd"
   xmlns="http://www.w3.org/2000/svg"
   xmlns:svg="http://www.w3.org/2000/svg">
  <defs
     id="defs1" />
  <sodipodi:namedview
     id="namedview1"
     pagecolor="#ffffff"
     bordercolor="#000000"
     borderopacity="0.25"
     inkscape:showpageshadow="2"
     inkscape:pageopacity="0.0"
     inkscape:pagecheckerboard="0"
     inkscape:deskcolor="#d1d1d1"
     showgrid="false" />
  <path
     d="M 8.3334553,20.145335 C 7.6357375,20.548404 6.7645474,20.044568 6.7645474,19.239706 V 4.7470812 c 0,-0.8048623 0.8711901,-1.3086988 1.5689079,-0.9056296 L 20.884716,11.087764 c 0.697717,0.403069 1.568907,-0.100768 1.568907,-0.90563 V 6.5583404 c 0,-0.3737316 -0.198983,-0.7194015 -0.522969,-0.9056296 L 12.517209,0.21765782 c -0.323986,-0.18622812 -0.721953,-0.18622812 -1.045939,0 L 2.0578252,5.6527108 C 1.7338389,5.8389389 1.5348557,6.1846088 1.5348557,6.5583404 V 17.428446 c 0,0.373732 0.1989832,0.719402 0.5229695,0.90563 l 9.4134448,5.435053 c 0.323986,0.187504 0.721953,0.187504 1.045939,0 l 9.413445,-5.435053 c 0.323986,-0.186228 0.522969,-0.531898 0.522969,-0.90563 v -3.623793 c 0,-0.804863 -0.87119,-1.308699 -1.568907,-0.90563 z"
     fill="currentColor"
     id="path1"
     sodipodi:nodetypes="cssccssccccssccccsscc" />
</svg>
